<svg xmlns="http://www.w3.org/2000/svg" xmlns:xlink="http://www.w3.org/1999/xlink" fill="none" version="1.1" width="72"
    height="72" viewBox="0 0 72 72">
    <defs>
        <clipPath id="master_svg0_10_8281">
            <rect x="0" y="0" width="72" height="72" rx="0" />
        </clipPath>
    </defs>
    <g clip-path="url(#master_svg0_10_8281)">
        <g>
            <path
                d="M13.24024768125,51.8130941C13.68678188125,50.4806929,15.09840488125,48.88181305,16.53163428125,49.097878933C17.96486428125,49.31394482,20.391992281249998,51.9787431,23.01357828125,56.7465734C25.63516628125,61.514404,27.94705728125,63.833498,28.37918828125,65.389166C28.78577428125,67.212214,28.15111328125,69.110651,26.72989228125,70.322645C25.37588728125,71.179703,23.44570928125,71.820696,19.36928528125,70.322645C15.29286198125,68.824594,7.58655028125,67.513802,6.66467378125,66.721563C5.90461302125,66.234529,5.42495089725,65.411869,5.37548828125,64.510504C5.44750988525,63.86231,6.37658848125,63.43738,6.37658848125,62.220214999999996C6.37658848125,61.00305,5.15942347125,57.5748224,5.80041563125,56.458487C6.44140778125,55.3421516,7.87463758125,54.9532356,10.12171168125,54.8884163C12.36878588125,54.823597,12.55604168125,53.9521365,13.26905538125,51.7986875L13.24024768125,51.8130941ZM48.35077628125,71.619036C46.88844328125,71.377735,45.75640828125,70.20767599999999,45.56354528125,68.738173C45.70343028125,66.3339,45.99207328125,63.940601,46.42779928125,61.572021C46.42779928125,59.771482,45.85162728125,51.6330428,46.57185028125,50.9200258C47.39247928125,50.3977547,48.33673428125,50.1020508,49.30867428125,50.06296778C50.27376128125,50.01975632,49.30867428125,55.8246961,52.39839928125,55.6374393C55.72323628125,55.915886900000004,58.83201628125,53.9637237,60.02548228125,50.848001C61.22104628125,47.7294674,61.37949028125,51.3449521,61.30746828125,53.7792821C61.14171228125,55.5663157,62.07601128125,57.2754107,63.66977728125,58.1005783C64.74290128125,58.6119318,68.17833728125001,60.981442,65.39109428124999,62.817991C62.60386228125,64.654541,56.74850428125,68.57972,55.30807528125,69.897715C53.46758228125,71.676239,50.81439228125,72.330599,48.35798628125,71.61183199999999L48.35077628125,71.619036ZM44.84333028125,60.498902C45.22509028125,61.953106,45.22509028125,63.481222,44.84333028125,64.935434C44.46644928125,66.210806,44.29862228125,67.538792,44.34638228125,68.86781500000001C42.08928328125,68.495766,39.80625528125,68.303101,37.51873028125,68.291641C34.96467828125,68.031902,32.38480328125,68.226978,29.89884528125,68.86781500000001C30.15085228125,67.484379,30.15085228125,66.066795,29.89884528125,64.683359C29.64677028125,63.336555000000004,40.41400128125,66.29664,44.84333028125,60.498902Z"
                fill="#FFFFFF" fill-opacity="1" style="mix-blend-mode:passthrough" />
        </g>
        <g>
            <path
                d="M42.416389406250005,22.535561C43.92411640625,23.645836,44.90657840625,25.329311,45.13160340625,27.188156C45.70777740625,30.544363,49.06398440625,36.622986,49.50331840625,39.770332C49.94264940625,42.917679,50.07949040625,53.569672,51.66396740625,54.217865C53.24844340625,54.866058,59.16141540625,56.21286,60.38578040625,45.575272C61.03397340625,40.000801,57.50491740625,32.971489,53.96145240625,29.413624C51.13820640625,26.60478,49.79860640625,25.884565,48.50941840625,18.819244C47.22023440625,11.753925,47.28505340625,7.4110231,45.549329406249996,4.4149237C44.404184406249996,2.3695109,42.35877040625,0,36.092889406249995,0C31.34666640625,0,28.27134440625,1.7213163,27.27024340625,3.860358C25.845402406250003,7.644124,25.33218340625,11.710386,25.77219340625,15.729519Q26.197121406249998,21.023108,26.197121406249998,24.458536C23.941699006249998,27.249956,21.90923070625,30.214376,20.118497806249998,33.324394C18.04427480625,37.256775,17.23763370625,40.3321,16.47420410625,41.830147C15.14689564625,43.630951,14.44387042525,45.815887,14.47200357914,48.052818C14.47200357914,50.285488,16.76229050625,45.171951,18.69247010625,47.908775Q20.62265010625,50.645599,26.26194140625,60.10923C27.10238440625,60.289841,27.97406540625,59.993744,28.53062140625,59.3386Q29.25083840625,58.265476,22.113496806249998,51.048912C20.29628510625,49.507656,19.56644960625,47.035271,20.25533960625,44.754223C21.69076590625,39.763618,23.40762810625,34.858299,25.39768140625,30.061817L27.55832940625,26.460737L27.55832940625,22.816442C25.95415640625,21.316628,26.12823540625,18.722839,27.91843740625,17.450834C27.54883840625,16.285694,27.35465540625,15.072047,27.342264406250003,13.849753C27.342264406250003,11.926777,28.06248040625,10.133439,29.50291140625,10.133439C30.94334440625,10.133439,32.62864640625,12.157247,32.62864640625,14.807641L35.12779640625,14.807641C35.12779640625,11.991596,36.51061640625,9.7661285,38.72888040625,9.7661285C40.94714340625,9.7661285,42.58923940625,12.265278,42.58923940625,14.195458C42.626983406250005,15.135909,42.52996840625,16.076923,42.301153406249995,16.989897C42.07788440625,17.897367,43.94324540625,18.055817,43.94324540625,19.489046C43.76388340625,20.645521,43.242092406249995,21.721714,42.445194406249996,22.578773L42.416389406250005,22.535561Z"
                fill="#FFFFFF" fill-opacity="1" style="mix-blend-mode:passthrough" />
        </g>
        <g>
            <path
                d="M33.839145684375,15.527981725C36.859944384375,15.988355125,39.768703484374996,17.006787825,42.416918484375,18.531282425C43.209157484375,19.337923525,43.137137484375,20.180576825,41.912766484375,21.181677825C40.688396484375,22.182779325,36.871252084375,25.553389625,33.839145684375,25.553389625C31.508831984375,25.160505625,29.426439984375,23.867094625,28.041407344375,21.952308625C29.503640384375,22.802936625,31.090769984375,23.417857625,32.744416284375,23.774455625C35.085117784375,23.774455625,39.824141484375,22.276405325,41.041306484375,19.921299425C38.497443484375,21.316335725000002,35.744033784375,22.289271325,32.888459184375,22.802163625C31.117450484375,22.735649125000002,29.414071784375,22.104767825,28.027000664375,21.001622225C27.241965293875,20.425449825,26.881856204375,19.424348325,27.738914254375,18.711335625C29.372297984375,17.029690725000002,31.508372784375,15.924998025,33.824739484375,15.563991025L33.839145684375,15.527981725ZM29.222562084375,16.521879625Q30.864655484375,15.491970525,31.332795184375,15.304714725Q31.224762484375,13.547387125,30.274078084375,13.057640435C29.553862084374998,12.675925612,28.351101684375,13.057640435,28.307887984375,14.498072525C28.284256684375,15.277655625,28.621798784375,16.024498425,29.222562084375,16.521879625ZM37.267374484375,15.340724925C38.215583484375,15.687679325,39.145825484375,16.081891025,40.054609484375,16.521879625Q41.250166484375,14.642115725,40.666792484375,13.641015525C40.147761484374996,12.628976225,38.784263484375,12.433664205,38.001994484375004,13.259300705C37.607447484375,13.894898425000001,37.361272484375,14.611268125,37.281776484375,15.355129525L37.267374484375,15.340724925Z"
                fill="#FFFFFF" fill-opacity="1" style="mix-blend-mode:passthrough" />
        </g>
    </g>
</svg>