<svg xmlns="http://www.w3.org/2000/svg" xmlns:xlink="http://www.w3.org/1999/xlink" fill="none" version="1.1" width="120"
    height="25" viewBox="0 0 120 25">
    <g>
        <path
            d="M18.039999,4.3600006L18.039999,11.52L11.28,11.52L11.28,12.3L18.32,12.3L18.32,14.76L11.28,14.76L11.28,15.52L19.08,15.52L19.08,17.959999L0.91999996,17.959999L0.91999996,15.52L8.7200003,15.52L8.7200003,14.76L1.6799999,14.76L1.6799999,12.3L8.7200003,12.3L8.7200003,11.52L1.9599999,11.52L1.9599999,4.3600006L18.039999,4.3600006ZM2.22,18.76L5.1599998,18.76L3.6599998,22L0.71999997,22L2.22,18.76ZM8.7200003,9.5200005L8.7200003,6.5600004L4.52,6.5600004L4.52,9.5200005L8.7200003,9.5200005ZM5,6.8000002L8.2399998,7.4000006L8.2399998,9.2600002L5,8.6400003L5,6.8000002ZM6.7199998,18.76L9.46,18.76L8.6799994,22L5.9400001,22L6.7199998,18.76ZM13.28,18.76L14.059999,22L11.32,22L10.54,18.76L13.28,18.76ZM15.48,9.5200005L15.48,6.5600004L11.28,6.5600004L11.28,9.5200005L15.48,9.5200005ZM11.759999,7.4000006L15,6.8000002L15,8.6400003L11.759999,9.2600002L11.759999,7.4000006ZM17.779999,18.76L19.279999,22L16.34,22L14.839999,18.76L17.779999,18.76ZM38.939999,4.2200003L38.939999,6.7200003L24.299999,6.7200003L24.299999,19.280001L38.939999,19.280001L38.939999,21.780001L21.719999,21.780001L21.719999,4.2200003L38.939999,4.2200003ZM25.74,7.6800003L38,7.6800003L38,16.68L33.16,16.68L33.16,18.98L30.599998,18.98L30.599998,16.68L25.74,16.68L25.74,7.6800003ZM30.639999,14.4L30.639999,13.280001L28.220001,13.280001L28.220001,14.4L30.639999,14.4ZM30.639999,11.08L30.639999,9.96L28.220001,9.96L28.220001,11.08L30.639999,11.08ZM35.52,14.4L35.52,13.280001L33.119999,13.280001L33.119999,14.4L35.52,14.4ZM35.52,11.08L35.52,9.96L33.119999,9.96L33.119999,11.08L35.52,11.08ZM53.639999,15.639999L55.919998,15.639999L55.939999,8.1800003L51.939999,8.1800003L51.939999,9.8000002Q51.939999,13.02,50.43,15.3Q48.919998,17.58,46.060001,18.540001L46.060001,15.54Q47.779999,14.84,48.580002,13.46Q49.380001,12.08,49.380001,9.7200003L49.380001,8.1800003L46.52,8.1800003L46.52,5.6199999L49.380001,5.6199999L49.380001,3.8000011L51.939999,3.8000011L51.939999,5.6199999L58.48,5.6199999L58.48,18.16L53.639999,18.16L53.639999,15.639999ZM40.599998,9.6999998L45.560001,9.6999998Q45.560001,12.280001,45.380001,14.32Q45.200001,16.360001,44.759998,18.379999Q45.66,18.879999,46.75,19.09Q47.84,19.299999,49.400002,19.299999L59.199997,19.299999L59.199997,21.799999L49.400002,21.799999Q47.560001,21.799999,46.34,21.59Q45.119999,21.379999,44.139999,20.879999Q44,21.360001,43.939999,21.5Q43.84,21.879999,43.799999,22L41.040001,22Q41.98,19.379999,42.419998,17.139999Q42.860001,14.9,42.959999,12.3L40.599998,12.3L40.599998,9.6999998ZM44.119999,4L45.5,8.3400002L42.799999,8.3400002L41.419998,4L44.119999,4ZM62.98,12.440001L60.799999,11.16L63.860001,4L66.32,4L63.84,9.7200003L64.459999,10.1L65.519997,7.5799999L67.860001,7.5799999L64.860001,14.700001L66.699997,14.700001L66.699997,17.280001L60.939999,17.280001L62.98,12.440001ZM60.98,19.299999L66.800003,18.639999L66.800003,21.219999L60.98,21.879999L60.98,19.299999ZM67.32,10.1L74.519997,10.1L74.639999,9.3600006L68.220001,9.3600006L69.260002,3.6000004L71.82,3.6000004L71.699997,4.2200003L78.139999,4.2200003L77.080002,10.1L78.739998,10.1L78.739998,12.280001L74.360001,12.280001Q74.760002,13.76,74.900002,14.54Q75.540001,14.96,76.18,15.54L77.080002,13.14L79.279999,13.14L78.040001,16.48L77.119995,16.48Q79.160004,18.9,79.379997,21.98L77.239998,21.98Q77.059998,20.780001,76.559998,19.57Q76.059998,18.360001,75.239998,17.540001Q75.360001,19.700001,75.360001,22L72.839996,22L72.82,20.559999Q70.199997,21.5,67.440002,21.98L67.440002,19.66Q68.599998,19.459999,70.019997,19.110001Q71.440002,18.76,72.739998,18.280001Q72.699997,17.639999,72.660004,17.299999Q70.120003,18.26,67.440002,18.76L67.440002,16.459999Q68.540001,16.26,69.860001,15.91Q71.18,15.559999,72.379997,15.1L72.220001,14.32Q69.779999,15.1,67.440002,15.559999L67.440002,13.4Q69.839996,12.96,71.699997,12.32L71.68,12.280001L67.32,12.280001L67.32,10.1ZM75.019997,7.2600002L75.199997,6.3200006L71.32,6.3200006L71.160004,7.2600002L75.019997,7.2600002ZM92.18,13L87.419998,13L87.419998,10.34L92.160004,10.34L92.160004,3.8000011L94.839996,3.8000011L94.839996,10.34L99.400002,10.34L99.400002,13L94.839996,13L94.839996,22.200001L92.18,22.200001L92.18,13ZM80.699997,9.6999998L85.480003,9.6999998L85.480003,18.219999L87.959999,17.48L87.959999,20.459999L82.800003,22L82.800003,12.360001L80.699997,12.360001L80.699997,9.6999998ZM84.800003,4L86.18,8.3400002L83.459999,8.3400002L82.080002,4L84.800003,4ZM104.52,17.540001Q104.64,16.9,104.68,16.58L102.7,16.58L102.7,8.2200003Q101.88,8.6599998,101,8.8400002L101,6.5200005Q102.72,5.6800003,103.5,4.1000004L109.94,4.1000004L109.94,6.2800007L107.9,6.2800007L108.5,7.6400003L105.88,7.6400003L105.28,6.2800007L104.94,6.2800007Q104.08,7.46,102.78,8.1800003L109.56,8.1800003L109.56,6.5200005Q111.28,5.6800003,112.06,4.1000004L118.8,4.1000004L118.8,6.2800007L116.42,6.2800007L117.02,7.6400003L114.4,7.6400003L113.8,6.2800007L113.5,6.2800007Q112.64,7.46,111.34,8.1800003L117.3,8.1800003L117.3,16.58L115.18,16.58L115.18,17.540001L119,17.540001L119,19.780001L115.18,19.780001L115.18,22L112.58,22L112.58,19.780001L106.52,19.780001Q106.1,20.9,105.38,22L102.1,22Q103.12,20.82,103.66,19.780001L101,19.780001L101,17.540001L104.52,17.540001ZM114.7,14.88L114.7,14.200001L105.3,14.200001L105.3,14.88L114.7,14.88ZM114.7,12.74L114.7,12.08L105.3,12.08L105.3,12.74L114.7,12.74ZM114.7,10.6L114.7,9.9400005L105.3,9.9400005L105.3,10.6L114.7,10.6ZM112.58,17.540001L112.58,16.58L107.26,16.58Q107.24,17.059999,107.14,17.540001L112.58,17.540001Z"
            fill="#FFFFFF" fill-opacity="1" />
    </g>
</svg>