<svg xmlns="http://www.w3.org/2000/svg" xmlns:xlink="http://www.w3.org/1999/xlink" fill="none" version="1.1" width="880"
    height="161" viewBox="0 0 880 161">
    <g>
        <path
            d="M98.655983,11.951996L98.655983,34.863998L77.023979,34.863998L77.023979,37.360001L99.551987,37.360001L99.551987,45.231998L77.023979,45.231998L77.023979,47.664001L101.98398,47.664001L101.98398,55.472L43.871979,55.472L43.871979,47.664001L68.831978,47.664001L68.831978,45.231998L46.303978,45.231998L46.303978,37.360001L68.831978,37.360001L68.831978,34.863998L47.199978,34.863998L47.199978,11.951996L98.655983,11.951996ZM48.031979,58.032001L57.43998,58.032001L52.63998,68.400002L43.231979,68.400002L48.031979,58.032001ZM68.831978,28.463997L68.831978,18.991997L55.391979,18.991997L55.391979,28.463997L68.831978,28.463997ZM56.927979,19.759998L67.295982,21.679996L67.295982,27.632L56.927979,25.647999L56.927979,19.759998ZM62.43198,58.032001L71.199982,58.032001L68.703979,68.400002L59.935982,68.400002L62.43198,58.032001ZM83.423981,58.032001L85.919983,68.400002L77.151978,68.400002L74.655975,58.032001L83.423981,58.032001ZM90.463982,28.463997L90.463982,18.991997L77.023979,18.991997L77.023979,28.463997L90.463982,28.463997ZM78.559982,21.679996L88.927979,19.759998L88.927979,25.647999L78.559982,27.632L78.559982,21.679996ZM97.823982,58.032001L102.62398,68.400002L93.215981,68.400002L88.415985,58.032001L97.823982,58.032001ZM165.53598,11.503998L165.53598,19.503998L118.68798,19.503998L118.68798,59.695999L165.53598,59.695999L165.53598,67.695999L110.43198,67.695999L110.43198,11.503998L165.53598,11.503998ZM123.29597,22.575996L162.52798,22.575996L162.52798,51.375999L147.03998,51.375999L147.03998,58.736L138.84798,58.736L138.84798,51.375999L123.29597,51.375999L123.29597,22.575996ZM138.97598,44.080002L138.97598,40.495998L131.23198,40.495998L131.23198,44.080002L138.97598,44.080002ZM138.97598,33.456001L138.97598,29.871998L131.23198,29.871998L131.23198,33.456001L138.97598,33.456001ZM154.59198,44.080002L154.59198,40.495998L146.91199,40.495998L146.91199,44.080002L154.59198,44.080002ZM154.59198,33.456001L154.59198,29.871998L146.91199,29.871998L146.91199,33.456001L154.59198,33.456001ZM211.10397,17.199997L211.10397,62L200.54398,62L200.54398,43.056L183.32797,43.056L183.32797,62L172.76797,62L172.76797,17.199997L183.32797,17.199997L183.32797,34.416L200.54398,34.416L200.54398,17.199997L211.10397,17.199997ZM218.78398,17.199997L250.27199,17.199997L250.27199,25.903999L229.34398,25.903999L229.34398,35.503998L247.51999,35.503998L247.51999,43.632L229.34398,43.632L229.34398,53.295998L250.27199,53.295998L250.27199,62L218.78398,62L218.78398,17.199997ZM275.67999,47.728001L275.42398,47.728001L265.69598,62L253.47198,62L269.08798,39.792L253.15199,17.199997L265.24799,17.199997L275.42398,31.855999L275.67999,31.855999L285.85599,17.199997L297.952,17.199997L282.07999,39.792L297.69598,62L285.40799,62L275.67999,47.728001ZM322.784,38.639999L322.784,46.063999L303.13599,46.063999L303.13599,38.639999L322.784,38.639999ZM382.75198,67.375999L335.392,67.375999L335.392,11.823997L382.75198,11.823997L382.75198,67.375999ZM374.23999,59.183998L374.23999,51.312L343.90399,51.312L343.90399,59.183998L374.23999,59.183998ZM374.23999,43.183998L374.23999,35.695999L343.90399,35.695999L343.90399,43.183998L374.23999,43.183998ZM374.23999,27.567997L374.23999,20.015999L343.90399,20.015999L343.90399,27.567997L374.23999,27.567997ZM405.15198,25.327999L394.336,25.327999L394.336,17.391998L405.15198,17.391998L405.15198,10.479996L413.216,10.479996L413.216,17.391998L418.20801,17.391998L418.20801,25.327999L413.216,25.327999L413.216,33.456001L416.92798,36.271999L416.92798,45.935997L413.216,43.119999L413.216,68.400002L405.15198,68.400002L405.15198,25.327999ZM392.92798,65.071999Q396.064,49.391998,396.064,27.952L402.84799,27.952Q402.84799,38.575996,402.30399,47.568001Q401.75998,56.560001,400.16,65.071999L392.92798,65.071999ZM414.81598,65.711998Q419.616,52.143997,419.616,38.512001L426.784,38.512001Q426.784,52.335999,422.944,65.711998L414.81598,65.711998ZM417.44,27.119999L452.51199,27.119999L452.51199,35.119999L439.13599,35.119999L439.13599,68.400002L426.20801,68.400002L426.20801,60.464001L431.19998,60.464001L431.19998,35.119999L417.44,35.119999L417.44,27.119999ZM420.57599,11.439999L449.37601,11.439999L449.37601,19.311996L420.57599,19.311996L420.57599,11.439999ZM449.18399,38.832001Q453.02399,52.143997,453.02399,66.031998L445.85599,66.031998Q445.85599,52.335999,441.44,38.832001L449.18399,38.832001ZM498.72,48.048L506.01599,48.048L506.07999,24.175999L493.28,24.175999L493.28,29.359997Q493.28,39.664001,488.448,46.959999Q483.616,54.256001,474.46399,57.327999L474.46399,47.728001Q479.96799,45.487999,482.52798,41.071999Q485.08798,36.655998,485.08798,29.104L485.08798,24.175999L475.936,24.175999L475.936,15.983997L485.08798,15.983997L485.08798,10.159996L493.28,10.159996L493.28,15.983997L514.20801,15.983997L514.20801,56.112L498.72,56.112L498.72,48.048ZM456.992,29.039997L472.86398,29.039997Q472.86398,37.295998,472.28799,43.823997Q471.71201,50.351997,470.30399,56.816002Q473.18399,58.416,476.672,59.088001Q480.16,59.759998,485.15198,59.759998L516.51196,59.759998L516.51196,67.760002L485.15198,67.760002Q479.26398,67.760002,475.35999,67.087997Q471.45599,66.416,468.32001,64.816002Q467.87198,66.351997,467.67999,66.800003Q467.35999,68.015999,467.23199,68.400002L458.39999,68.400002Q461.40799,60.015999,462.81598,52.848Q464.224,45.68,464.54401,37.360001L456.992,37.360001L456.992,29.039997ZM468.25598,10.799999L472.672,24.688L464.03198,24.688L459.616,10.799999L468.25598,10.799999ZM528.60803,37.807999L521.63202,33.711998L531.42401,10.799999L539.29602,10.799999L531.36005,29.104L533.34399,30.319998L536.73602,22.255997L544.224,22.255997L534.62402,45.040001L540.51202,45.040001L540.51202,53.295998L522.08002,53.295998L528.60803,37.807999ZM522.20801,59.759998L540.83203,57.647999L540.83203,65.903999L522.20801,68.015999L522.20801,59.759998ZM542.49603,30.319998L565.53601,30.319998L565.92004,27.952L545.37604,27.952L548.70404,9.5199966L556.896,9.5199966L556.51202,11.503998L577.12,11.503998L573.72803,30.319998L579.04004,30.319998L579.04004,37.295998L565.02405,37.295998Q566.30402,42.031998,566.75201,44.528Q568.80005,45.872002,570.84802,47.728001L573.72803,40.047997L580.76801,40.047997L576.80005,50.736L573.85602,50.736Q580.38403,58.48,581.08801,68.335999L574.24005,68.335999Q573.664,64.496002,572.06403,60.624001Q570.46405,56.751999,567.84003,54.127998Q568.224,61.040001,568.224,68.400002L560.16003,68.400002L560.09601,63.792Q551.71204,66.800003,542.88,68.335999L542.88,60.911999Q546.59204,60.271999,551.13605,59.152Q555.68005,58.032001,559.84003,56.495998Q559.71204,54.447998,559.58405,53.360001Q551.45605,56.431999,542.88,58.032001L542.88,50.672001Q546.40002,50.031998,550.62402,48.911999Q554.84802,47.792,558.68805,46.32L558.17603,43.823997Q550.36804,46.32,542.88,47.792L542.88,40.879997Q550.56,39.472,556.51202,37.424L556.448,37.295998L542.49603,37.295998L542.49603,30.319998ZM567.13605,21.231998L567.71204,18.223999L555.29602,18.223999L554.784,21.231998L567.13605,21.231998ZM622.04803,39.599998L606.81604,39.599998L606.81604,31.087999L621.98401,31.087999L621.98401,10.159996L630.56,10.159996L630.56,31.087999L645.15204,31.087999L645.15204,39.599998L630.56,39.599998L630.56,69.040001L622.04803,69.040001L622.04803,39.599998ZM585.31201,29.039997L600.60803,29.039997L600.60803,56.304001L608.54401,53.936001L608.54401,63.472L592.03204,68.400002L592.03204,37.551998L585.31201,37.551998L585.31201,29.039997ZM598.43201,10.799999L602.84802,24.688L594.14404,24.688L589.72803,10.799999L598.43201,10.799999ZM661.53601,54.127998Q661.92004,52.080002,662.04803,51.056L655.71204,51.056L655.71204,24.303997Q653.08801,25.711998,650.27203,26.287998L650.27203,18.863998Q655.776,16.175999,658.27203,11.119999L678.88,11.119999L678.88,18.095997L672.35205,18.095997L674.27203,22.447998L665.888,22.447998L663.96802,18.095997L662.88,18.095997Q660.12805,21.871998,655.96802,24.175999L677.664,24.175999L677.664,18.863998Q683.16803,16.175999,685.664,11.119999L707.23206,11.119999L707.23206,18.095997L699.61603,18.095997L701.53601,22.447998L693.15204,22.447998L691.23206,18.095997L690.27203,18.095997Q687.52002,21.871998,683.36005,24.175999L702.43201,24.175999L702.43201,51.056L695.64801,51.056L695.64801,54.127998L707.87201,54.127998L707.87201,61.296001L695.64801,61.296001L695.64801,68.400002L687.328,68.400002L687.328,61.296001L667.93604,61.296001Q666.59204,64.879997,664.28802,68.400002L653.79199,68.400002Q657.05603,64.624001,658.784,61.296001L650.27203,61.296001L650.27203,54.127998L661.53601,54.127998ZM694.112,45.615997L694.112,43.439999L664.03204,43.439999L664.03204,45.615997L694.112,45.615997ZM694.112,38.767998L694.112,36.655998L664.03204,36.655998L664.03204,38.767998L694.112,38.767998ZM694.112,31.919998L694.112,29.807999L664.03204,29.807999L664.03204,31.919998L694.112,31.919998ZM687.328,54.127998L687.328,51.056L670.30402,51.056Q670.24005,52.591999,669.92004,54.127998L687.328,54.127998ZM770.40002,47.023998L758.36804,47.023998Q757.92004,51.119999,756.19202,54.703999L772.83203,60.976002L772.83203,69.040001L751.71204,61.104Q745.69604,67.248001,735.52002,69.040001L735.52002,61.296001Q739.93604,60.335999,743.39203,58.032001L737.12,55.664001L737.12,47.599998L748.76801,51.952Q749.98401,49.776001,750.49603,47.023998L738.91205,47.023998L738.91205,21.487999L750.56,21.487999L750.56,18.799999L737.05603,18.799999L737.05603,11.567997L772.19202,11.567997L772.19202,18.799999L758.75201,18.799999L758.75201,21.487999L770.40002,21.487999L770.40002,47.023998ZM712.992,39.599998Q715.552,34.799999,717.18402,30.095999Q718.81604,25.391998,719.84003,20.079998L714.20801,20.079998L714.20801,11.759998L735.52002,11.759998L735.52002,20.079998L728.09601,20.079998Q727.07202,26.287998,725.15204,32.112L734.81604,32.112L734.81604,65.199997L716.32001,65.199997L716.32001,39.599998L712.992,39.599998ZM727.776,57.071999L727.776,40.239998L723.36005,40.239998L723.36005,57.071999L727.776,57.071999ZM750.88,40.495998L750.88,37.167999L746.784,37.167999L746.784,40.495998L750.88,40.495998ZM750.88,31.343998L750.88,28.015999L746.784,28.015999L746.784,31.343998L750.88,31.343998ZM762.59204,40.495998L762.59204,37.167999L758.43201,37.167999L758.43201,40.495998L762.59204,40.495998ZM762.59204,31.343998L762.59204,28.015999L758.43201,28.015999L758.43201,31.343998L762.59204,31.343998ZM777.63202,32.431999Q784.86401,23.792,787.74402,10.799999L795.87201,10.799999Q794.46405,19.375999,791.20001,26.799999L791.20001,68.400002L782.88,68.400002L782.88,39.984001Q780.64001,42.543999,777.63202,45.167999L777.63202,32.431999ZM793.63202,36.079998Q797.79199,25.264,799.52002,12.079998L807.39203,12.079998Q806.75201,17.455997,806.30402,19.887997L812.19202,19.887997L812.19202,10.799999L820.51202,10.799999L820.51202,19.887997L834.97601,19.887997L834.97601,28.143997L820.51202,28.143997L820.51202,45.040001L836.57605,45.040001L836.57605,53.360001L820.51202,53.360001L820.51202,68.400002L812.19202,68.400002L812.19202,53.360001L794.01599,53.360001L794.01599,45.040001L812.19202,45.040001L812.19202,28.143997L804.57605,28.143997Q803.74402,31.663998,802.336,36.079998L793.63202,36.079998ZM291.07199,138.01601L297.47202,138.01601L297.47202,128.992L284.28799,128.992L284.28799,146.39999L276.09601,146.39999L276.09601,128.992L262.59201,128.992Q261.69601,138.144,259.07199,146.464L249.92,146.464Q254.784,134.368,254.784,119.52L254.72,89.695999L305.728,89.695999L305.728,146.39999L291.07199,146.39999L291.07199,138.01601ZM276.09601,121.056L276.09601,113.312L263.04001,113.312L263.04001,119.52L263.04001,121.056L276.09601,121.056ZM276.09601,105.376L276.09601,97.759995L263.04001,97.759995L263.04001,105.376L276.09601,105.376ZM297.47202,121.056L297.40799,113.312L284.28799,113.312L284.28799,121.056L297.47202,121.056ZM297.40799,105.376L297.40799,97.759995L284.28799,97.759995L284.28799,105.376L297.40799,105.376ZM314.17599,146.39999Q317.37601,139.36,318.59201,132.576Q319.80801,125.792,319.80801,116.896L319.80801,93.151993L339.776,93.151993L339.776,87.519997L348.224,87.519997L348.224,93.151993L369.92001,93.151993L369.92001,120.16L328.12799,120.16Q327.74399,134.752,323.64801,146.39999L314.17599,146.39999ZM361.40799,111.904L361.40799,101.408L328.19202,101.408L328.19202,111.904L361.40799,111.904ZM382.14401,146.39999Q386.75201,140.70399,389.056,134.688Q391.35999,128.672,392,121.952L379.008,121.952L379.008,113.696L392.25601,113.696L392.25601,98.335999L382.97601,98.335999L382.97601,90.015999L433.02399,90.015999L433.02399,98.335999L424.57599,98.335999L424.57599,113.696L436.992,113.696L436.992,121.952L424.57599,121.952L424.57599,146.39999L416.25601,146.39999L416.25601,121.952L400.384,121.952Q399.936,128.992,398.14401,134.784Q396.35199,140.576,392.76801,146.39999L382.14401,146.39999ZM416.25601,113.696L416.25601,98.335999L400.57599,98.335999L400.57599,113.696L416.25601,113.696ZM473.85602,146.39999Q477.56799,141.088,480.09601,136.96001Q482.62399,132.832,484.48001,128.73599L480.51199,117.6L473.47198,117.6Q477.31201,104.48,478.65601,88.287994L487.168,88.287994Q487.104,89.823997,486.97601,90.975998Q486.84799,92.127998,486.784,92.895996L486.59201,95.071999L501.31201,95.071999L501.31201,103.392L499.07199,103.392Q498.43201,110.944,497.34399,116.768Q496.25601,122.592,494.59201,127.648L502.336,146.39999L493.63202,146.39999L489.664,136.672Q487.67999,140.64,484.09601,146.39999L473.85602,146.39999ZM442.496,146.39999Q445.504,141.98399,447.04001,137.56799Q448.57599,133.15199,449.02399,128.608Q449.47198,124.064,449.47198,117.6L449.47198,102.368L444.09601,102.368L444.09601,94.047997L454.84799,94.047997L454.84799,88.479996L463.168,88.479996L463.168,94.047997L473.92001,94.047997L473.92001,102.368L457.664,102.368L457.664,109.728L472.64001,109.728L472.64001,146.39999L460.16,146.39999L460.16,138.336L464.57599,138.336L464.57599,117.792L457.34399,117.792Q457.34399,126.816,456.384,133.37601Q455.42401,139.936,452.48001,146.39999L442.496,146.39999ZM489.08801,118.368Q490.75201,111.584,491.52002,103.392L485.504,103.392L485.12,105.824L489.08801,118.368ZM506.56,118.17599L531.84003,118.17599L531.84003,97.951996L507.90399,97.951996L507.90399,89.888L564.09601,89.888L564.09601,97.951996L540.15997,97.951996L540.15997,118.17599L565.44,118.17599L565.44,126.24L540.15997,126.24L540.15997,146.39999L531.84003,146.39999L531.84003,126.24L506.56,126.24L506.56,118.17599ZM520.19202,100.96L524.224,115.296L515.71198,115.296L511.67999,100.96L520.19202,100.96ZM551.80798,100.96L560.32001,100.96L556.28802,115.296L547.776,115.296L551.80798,100.96ZM623.87201,145.504L576.12799,145.504L576.12799,118.304L623.87201,118.304L623.87201,145.504ZM573.56799,104.92799L579.20001,104.92799L590.336,88.800003L601.216,88.800003L590.08002,104.92799L612.86401,104.92799L608.70398,96.800003L618.94403,96.800003L627.26398,113.12L573.56799,113.12L573.56799,104.92799ZM615.48798,137.504L615.48798,126.368L584.51202,126.368L584.51202,137.504L615.48798,137.504Z"
            fill="#FFFFFF" fill-opacity="1" />
    </g>
</svg>