<svg xmlns="http://www.w3.org/2000/svg" xmlns:xlink="http://www.w3.org/1999/xlink" fill="none" version="1.1" width="72"
    height="72" viewBox="0 0 72 72">
    <defs>
        <clipPath id="master_svg0_10_8273">
            <rect x="0" y="0" width="72" height="72" rx="0" />
        </clipPath>
    </defs>
    <g clip-path="url(#master_svg0_10_8273)">
        <g>
            <path
                d="M59.7039374375,49.563586875C59.6307644375,49.785625875,58.4875334375,53.773379875,55.6784824375,57.873881875C53.2472534375,61.411002875,50.7332764375,64.976760875,46.7627224375,65.039359875C42.8580744375,65.108001875,41.6085684375,62.709579875,37.150470437500005,62.709579875C32.6980574375,62.709579875,31.2983174375,64.976760875,27.608155437500002,65.108001875C23.7933744375,65.26413687499999,20.8579082375,61.244220875,18.4174676375,57.724368875C13.4298806375,50.513846875,9.5895571375,37.291518875,14.7400410375,28.430366875C17.274163237499998,23.996802875,21.8290357375,21.178619875000003,26.7891354375,21.101630874999998C30.5270024375,21.030974875,34.0833344375,23.633737875,36.3536094375,23.633737875C38.685981437500004,23.633737875,42.9880864375,20.484359875000003,47.5266954375,20.955567875C49.4270024375,21.036512875,54.7423244375,21.749980875,58.1669844375,26.713536875C57.8975294375,26.896869875,51.8070714375,30.491048875,51.8749234375,37.806113875C51.9664454375,46.637111875,59.6215554375,49.533439875,59.7039374375,49.563586875ZM44.5566974375,16.225133874999997C46.6033514375,13.728569975,47.9482614375,10.296785374999999,47.5944064375,6.888671875C44.6721804375,7.003290175,41.1118144375,8.829340175,38.9958004375,11.311080975C37.1248554375,13.476309275,35.475801437499996,16.961553875,35.935714437499996,20.330093875C39.1825884375,20.527311875000002,42.5210514375,18.629813875,44.5566974375,16.225133874999997Z"
                fill="#FFFFFF" fill-opacity="1" style="mix-blend-mode:passthrough" />
        </g>
    </g>
</svg>