<svg xmlns="http://www.w3.org/2000/svg" xmlns:xlink="http://www.w3.org/1999/xlink" fill="none" version="1.1" width="72"
    height="72" viewBox="0 0 72 72">
    <defs>
        <clipPath id="master_svg0_10_8250">
            <rect x="0" y="0" width="72" height="72" rx="0" />
        </clipPath>
    </defs>
    <g clip-path="url(#master_svg0_10_8250)">
        <g>
            <rect x="0" y="0" width="72" height="72" rx="0" fill="#FFFFFF" fill-opacity="0"
                style="mix-blend-mode:passthrough" />
        </g>
        <g>
            <path
                d="M10.125,16.59288619375L29.531252,14.00537109375L29.531252,32.11788709375L10.125,32.11788709375L10.125,16.59288619375Z"
                fill="#FFFFFF" fill-opacity="1" style="mix-blend-mode:passthrough" />
            <path
                d="M9.125,16.59288619375L9.125,32.11788709375Q9.12500006,32.21637709375,9.14421481,32.31297709375Q9.16342956,32.409574093749995,9.20112062,32.500568093750005Q9.238811609999999,32.59156209375,9.29353046,32.673454093749996Q9.34824938,32.75534809375,9.41789329,32.824993093749995Q9.48753726,32.89463609375,9.56942981,32.94935609375Q9.65132242,33.00407409375,9.7423166,33.04176509375Q9.83331078,33.07945609375,9.92990969,33.09867109375Q10.0265086,33.117885093750004,10.125,33.11788709375L29.531252,33.11788709375Q29.629744,33.117885093750004,29.726341,33.09867109375Q29.822941,33.07945609375,29.913933,33.04176509375Q30.004927,33.00407409375,30.086819,32.94935609375Q30.168713,32.89463609375,30.238358,32.824993093749995Q30.308001,32.75534809375,30.362719,32.673454093749996Q30.417437,32.59156209375,30.455128,32.500568093750005Q30.492819,32.409574093749995,30.512035,32.31297709375Q30.53125,32.21637709375,30.531252,32.11788709375L30.531252,14.00537109375Q30.531252,13.93899775275,30.52248,13.87320663375Q30.496189,13.67603927375,30.396448,13.50394082375Q30.296707,13.33184230375,30.138702,13.21101302375Q29.980694,13.09018367375,29.788475,13.03901887375Q29.596256,12.98785409375,29.399088,13.01414328375L9.99283554,15.60165839375Q9.90349306,15.61357069375,9.81772062,15.64126679375Q9.7319482,15.66896279375,9.65251058,15.71154979375Q9.57307297,15.75413679375,9.50253075,15.81024189375Q9.4319886,15.86634709375,9.37261564,15.93416189375Q9.31324279,16.00197649375,9.26695299,16.07931499375Q9.22066319,16.15665339375,9.18894863,16.24102259375Q9.15723407,16.32539199375,9.1411171,16.414072493749998Q9.125,16.50275299375,9.125,16.59288619375ZM11.125,31.11788709375L28.531252,31.11788709375L28.531252,15.14755499375L11.125,17.46840189375L11.125,31.11788709375Z"
                fill-rule="evenodd" fill="#FFFFFF" fill-opacity="1" style="mix-blend-mode:passthrough" />
        </g>
        <g>
            <path
                d="M37.293701171875,13.2669599L61.874954171875004,10.125L61.874954171875004,32.118752L37.293701171875,32.118752L37.293701171875,13.2669599Z"
                fill="#FFFFFF" fill-opacity="1" style="mix-blend-mode:passthrough" />
            <path
                d="M36.293701171875,13.2669599L36.293701171875,32.118752Q36.293701231875,32.217241,36.312915981875,32.313841Q36.332130731875,32.410439,36.369821791875,32.501434Q36.407512781875,32.592428,36.462231631875,32.67432Q36.516950551875,32.756214,36.586594461875,32.825857Q36.656238431875,32.8955,36.738130981875,32.950218Q36.820023591875,33.004937999999996,36.911017771875,33.042629000000005Q37.002011951875,33.08032,37.098610861875,33.099535Q37.195209771875,33.118752,37.293701171875,33.118752L61.874954171875004,33.118752Q61.973444171875,33.118752,62.070041171875005,33.099537Q62.166641171875,33.08032,62.257635171874995,33.042629000000005Q62.348629171875004,33.004937999999996,62.430521171875,32.950218Q62.512415171875,32.8955,62.582060171875,32.825857Q62.651703171875,32.756214,62.706421171875,32.67432Q62.761141171874996,32.592426,62.798832171875,32.501431Q62.836525171874996,32.410439,62.855739171875,32.313839Q62.874954171875004,32.217241,62.874954171875004,32.118752L62.874954171875004,10.125Q62.874954171875004,10.06134925,62.866884171875,9.99821216Q62.841667171875,9.80090511,62.742859171875,9.6282683Q62.644054171875,9.45563149,62.486702171874995,9.3339473Q62.329351171875004,9.21226311,62.137413171875,9.16005683Q61.945473171875,9.107850599999999,61.748167171875,9.13307017L37.166913331875,12.2750301Q37.077168641875,12.2865014,36.990940151875,12.313893799999999Q36.904711601875,12.341286199999999,36.824799711875,12.3837097Q36.744887771875,12.4261336,36.673887731875,12.4822111Q36.602887751875,12.5382886,36.543105481875,12.606198299999999Q36.483323101875,12.674108499999999,36.436700101875,12.7516456Q36.390077051875,12.8291826,36.358127591875,12.9138284Q36.326178011875,12.9984741,36.309939501875,13.0874796Q36.293701171875,13.1764853,36.293701171875,13.2669599ZM38.293701171875,31.118752L60.874954171875004,31.118752L60.874954171875004,11.2609551L38.293701171875,14.147276399999999L38.293701171875,31.118752Z"
                fill-rule="evenodd" fill="#FFFFFF" fill-opacity="1" style="mix-blend-mode:passthrough" />
        </g>
        <g>
            <path
                d="M37.293701171875,41.17529296875L61.874954171875004,41.75024133875L61.874954171875004,61.87529196875L37.293701171875,57.85034196875L37.293701171875,41.17529296875Z"
                fill="#FFFFFF" fill-opacity="1" style="mix-blend-mode:passthrough" />
            <path
                d="M36.293701171875,41.17529296875L36.293701171875,57.85034196875Q36.293701171875,57.93860196875,36.309160111875,58.02549896875Q36.324618991875,58.11239396875,36.355058971875,58.19523596875Q36.385498761875,58.27808196875,36.429978491875,58.35431296875Q36.474458161875,58.43054396875,36.531602501875,58.49780496875Q36.588746781875,58.56506696875,36.656788941875,58.62128096875Q36.724831101875,58.67749396875,36.801667391875,58.72091896875Q36.878503621875,58.764344968749995,36.961758371875,58.793641968749995Q37.045013161875,58.82293896875,37.132112381875,58.83719996875L61.713365171875,62.86214996875Q61.793625171875,62.87529196875,61.874954171875004,62.87529196875Q61.973444171875,62.875289968749996,62.070041171875005,62.85607696875Q62.166641171875,62.83686096875,62.257635171874995,62.79916996875Q62.348629171875004,62.76147796875,62.430521171875,62.70675996875Q62.512415171875,62.65204196875,62.582060171875,62.582396968750004Q62.651703171875,62.51275296875,62.706421171875,62.43085896875Q62.761141171874996,62.34896696875,62.798832171875,62.257972968749996Q62.836525171874996,62.166980968749996,62.855739171875,62.07038096875Q62.874954171875004,61.97378396875,62.874954171875004,61.87529196875L62.874954171875004,41.75024133875Q62.874954171875004,41.65322547875,62.856304171874996,41.55801882875Q62.837656171875,41.46281221875,62.801056171875004,41.37296573875Q62.764454171875,41.28311925875,62.711262171875,41.20198396975Q62.658073171875,41.12084867775,62.590278171875,41.05145069875Q62.522484171875,40.98205270875,62.442615171875005,40.92698038875Q62.362747171875,40.87190806875,62.273781171875,40.83321547875Q62.184814171875004,40.79452284875,62.090071171874996,40.77365308875Q61.995327171875005,40.75278329875,61.898338171875,40.75051474875L37.317084485875,40.17556637875Q37.305394428875,40.17529286875,37.293701171875,40.17529296875Q37.195209771875,40.17529302875,37.098610861875,40.19450777875Q37.002011951875,40.21372252875,36.911017771875,40.25141358875Q36.820023591875,40.28910457875,36.738131041875,40.34382342875Q36.656238431875,40.39854234875,36.586594461875,40.46818625875Q36.516950551875,40.53783022875,36.462231691875,40.61972277875Q36.407512781875,40.70161538875,36.369821731875,40.79260956875Q36.332130671875,40.88360374875,36.312915981875,40.98020265875Q36.293701231875,41.07680156875,36.293701171875,41.17529296875ZM38.293701171875,57.00076596875L60.874954171875004,60.69823496875L60.874954171875004,42.72712516875L38.293701171875,42.19895626875L38.293701171875,57.00076596875Z"
                fill-rule="evenodd" fill="#FFFFFF" fill-opacity="1" style="mix-blend-mode:passthrough" />
        </g>
        <g>
            <path
                d="M10.125,39.88037109375L29.531252,40.34762194375L29.531252,56.69912109375L10.125,53.42882309375L10.125,39.88037109375Z"
                fill="#FFFFFF" fill-opacity="1" style="mix-blend-mode:passthrough" />
            <path
                d="M9.125,39.88037109375L9.125,53.42882309375Q9.12500012,53.51678809375,9.14035738,53.60340409375Q9.15571469,53.69002009375,9.18595749,53.77262509375Q9.21620047,53.85522709375,9.26040012,53.93128309375Q9.3045997,54.00733809375,9.3613984,54.074511093750004Q9.41819727,54.14168209375,9.48585057,54.19790409375Q9.55350393,54.25412809375,9.62993386,54.29767909375Q9.70636386,54.34122609375,9.78922299,54.37076409375Q9.87208205,54.40030109375,9.95882526,54.41492009375L29.365078,57.68521709375Q29.447582,57.69912109375,29.531252,57.69912109375Q29.629744,57.69911909375,29.726341,57.67990509375Q29.822941,57.66069009375,29.913933,57.622999093749996Q30.004927,57.58530809375,30.086819,57.53059009375Q30.168713,57.475870093750004,30.238358,57.406227093750005Q30.308001,57.336582093749996,30.362719,57.254688093750005Q30.417437,57.17279609375,30.455128,57.08180209375Q30.492819,56.990808093750005,30.512035,56.89421109375Q30.53125,56.79761109375,30.531252,56.69912109375L30.531252,40.34762194375Q30.531254,40.25064945375,30.512619,40.15548378375Q30.493988,40.06031809375,30.457417,39.97050547575Q30.420849,39.8806928657,30.367702,39.79958013475Q30.314558,39.71846740375,30.246817,39.64907716375Q30.179079,39.57968691375,30.09927,39.52460491375Q30.019459,39.46952289375,29.930553,39.43080175375Q29.841648,39.39208060375,29.746958,39.37116319375Q29.652267,39.35024583375,29.555323,39.34791171375L10.14907036,38.88066083375Q10.137036923,38.88037109375,10.125,38.88037109375Q10.0265086,38.88037115375,9.92990969,38.89958590375Q9.83331078,38.91880065375,9.7423166,38.95649171375Q9.65132242,38.99418270375,9.56942987,39.04890155375Q9.48753726,39.10362047375,9.41789329,39.17326438375Q9.34824938,39.24290835375,9.293530520000001,39.32480090375Q9.238811609999999,39.40669351375,9.20112056,39.49768769375Q9.1634295,39.58868187375,9.14421481,39.68528078375Q9.12500006,39.78187969375,9.125,39.88037109375ZM11.125,52.583241093750004L28.531252,55.51650409375L28.531252,41.32383439375L11.125,40.90473819375L11.125,52.583241093750004Z"
                fill-rule="evenodd" fill="#FFFFFF" fill-opacity="1" style="mix-blend-mode:passthrough" />
        </g>
    </g>
</svg>